<svg viewBox="0 0 250 250">
  <g transform="translate(22 -374)">
    <rect width="250" height="250" transform="translate(-22 374)" fill="none"/>
  </g>
  <g transform="translate(25 25)">    
    <path d="M306.018,129.916,277.75,101.648a9.885,9.885,0,0,0-14.134,0L129.345,235.919a10.228,10.228,0,0,0-2.413,3.964l-17.409,45.5a9.657,9.657,0,0,0,2.413,10.169,9.816,9.816,0,0,0,10.169,2.413l45.676-17.409a11.684,11.684,0,0,0,3.964-2.413L306.018,143.877A9.681,9.681,0,0,0,306.018,129.916ZM119,288.663l17.409-45.676,28.268,28.268Zm52.743-24.476-28.268-28.268,106-106,28.268,28.268Zm113.07-113.07L256.55,122.849l14.134-14.134,28.268,28.268Z" transform="translate(-108.991 -98.675)"/>
  </g>
</svg>
