<svg xmlns="http://www.w3.org/2000/svg" viewBox="0 0 24 24">
  <path  d="M11.999 18.996a.326.326 0 0 0 .325-.325V7.932a.326.326 0 0 0-.651 0v10.735a.325.325 0 0 0 .326.329zM8.745 18.996a.326.326 0 0 0 .325-.325V7.932a.326.326 0 0 0-.651 0v10.735a.325.325 0 0 0 .326.329zM15.254 18.996a.326.326 0 0 0 .325-.325V7.932a.326.326 0 0 0-.651 0v10.735a.325.325 0 0 0 .326.329z"/>
  <path  d="M19.485 4.353h-4.571a2.584 2.584 0 0 0-.59-1.533A1.376 1.376 0 0 0 13.3 2.4h-3.251a1.378 1.378 0 0 0-1.023.42 2.591 2.591 0 0 0-.59 1.533H4.514a.326.326 0 0 0 0 .651h.664l.623 14.976a1.579 1.579 0 0 0 1.6 1.62h9.2a1.576 1.576 0 0 0 1.6-1.614L18.819 5h.664a.326.326 0 0 0 0-.651zm-9.994-1.08a.738.738 0 0 1 .556-.222H13.3a.738.738 0 0 1 .556.222 1.915 1.915 0 0 1 .4 1.08H9.088a1.921 1.921 0 0 1 .403-1.08zm8.058 16.693a.944.944 0 0 1-.947.983h-9.2a.956.956 0 0 1-.947-.99L5.831 5h12.338z"/>
  <path fill="none" d="M0 0h24v24H0z"/>
</svg>
